<svg xmlns="http://www.w3.org/2000/svg" viewBox="0 0 180 40" fill="none">
  <!-- Camera aperture icon: circle + 6 lines -->
  <circle cx="20" cy="20" r="14" stroke="#C9A84C" stroke-width="1.5"/>
  <circle cx="20" cy="20" r="8.5" stroke="#C9A84C" stroke-width="1"/>
  <circle cx="20" cy="20" r="3" fill="#C9A84C"/>
  <!-- Aperture blades -->
  <line x1="20" y1="6" x2="20" y2="13" stroke="#C9A84C" stroke-width="1.5" stroke-linecap="round"/>
  <line x1="20" y1="27" x2="20" y2="34" stroke="#C9A84C" stroke-width="1.5" stroke-linecap="round"/>
  <line x1="7.9" y1="13" x2="14.5" y2="16.8" stroke="#C9A84C" stroke-width="1.5" stroke-linecap="round"/>
  <line x1="25.5" y1="23.2" x2="32.1" y2="27" stroke="#C9A84C" stroke-width="1.5" stroke-linecap="round"/>
  <line x1="32.1" y1="13" x2="25.5" y2="16.8" stroke="#C9A84C" stroke-width="1.5" stroke-linecap="round"/>
  <line x1="14.5" y1="23.2" x2="7.9" y2="27" stroke="#C9A84C" stroke-width="1.5" stroke-linecap="round"/>

  <!-- S letterform (stylized) -->
  <path d="M44 14 C44 14 44 12 46.5 12 C49 12 50 13.5 50 15 C50 16.5 48.5 17.5 46.5 18.5 C44.5 19.5 43.5 20.5 43.5 22 C43.5 23.5 44.5 25 47 25 C49.5 25 50.5 23 50.5 23" stroke="#F5F5F5" stroke-width="1.5" stroke-linecap="round"/>
  <!-- Text placeholder using rectangles that look like "SNAPPEACHY STUDIO" -->
  <!-- Line 1: SNAPPEACHY  -->
  <rect x="55" y="11" width="7" height="1.5" rx="0.75" fill="#F5F5F5"/>
  <rect x="64" y="11" width="6" height="1.5" rx="0.75" fill="#F5F5F5"/>
  <rect x="72" y="11" width="7" height="1.5" rx="0.75" fill="#F5F5F5"/>
  <rect x="81" y="11" width="7" height="1.5" rx="0.75" fill="#F5F5F5"/>
  <rect x="90" y="11" width="6" height="1.5" rx="0.75" fill="#F5F5F5"/>
  <rect x="98" y="11" width="6" height="1.5" rx="0.75" fill="#F5F5F5"/>
  <rect x="106" y="11" width="7" height="1.5" rx="0.75" fill="#F5F5F5"/>
  <rect x="115" y="11" width="5" height="1.5" rx="0.75" fill="#F5F5F5"/>
  <!-- Line 2: STUDIO -->
  <rect x="55" y="23" width="5" height="1" rx="0.5" fill="#C9A84C"/>
  <rect x="62" y="23" width="5" height="1" rx="0.5" fill="#C9A84C"/>
  <rect x="69" y="23" width="5" height="1" rx="0.5" fill="#C9A84C"/>
  <rect x="76" y="23" width="5" height="1" rx="0.5" fill="#C9A84C"/>
  <rect x="83" y="23" width="5" height="1" rx="0.5" fill="#C9A84C"/>
  <rect x="90" y="23" width="5" height="1" rx="0.5" fill="#C9A84C"/>
</svg>
